<?xml version="1.0" encoding="utf-8"?>
<!-- Generator: Adobe Illustrator 19.0.0, SVG Export Plug-In . SVG Version: 6.00 Build 0)  -->
<svg version="1.1" id="light" xmlns="http://www.w3.org/2000/svg" xmlns:xlink="http://www.w3.org/1999/xlink" x="0px" y="0px"
	 viewBox="-49 141 512 512" style="enable-background:new -49 141 512 512;" xml:space="preserve">
<style type="text/css">
	.st0{fill:#FFFFFF;}
</style>
<g>
	<path class="st0" d="M377.7,397c-23.5,0-42.7-19.2-42.7-42.7s19.2-42.7,42.7-42.7s42.7,19.2,42.7,42.7S401.1,397,377.7,397z
		 M377.7,333c-12.8,0-21.3,8.5-21.3,21.3s8.5,21.3,21.3,21.3c12.8,0,21.3-8.5,21.3-21.3S390.5,333,377.7,333z"/>
</g>
<g>
	<path class="st0" d="M452.3,503.7c-6.4,0-10.7-4.3-10.7-10.7v-21.3c0-17.1-14.9-32-32-32h-64c-6.4,0-10.7-4.3-10.7-10.7
		c0-6.4,4.3-10.7,10.7-10.7h64c29.9,0,53.3,23.5,53.3,53.3V493C463,499.4,458.7,503.7,452.3,503.7z"/>
</g>
<g>
	<path class="st0" d="M36.3,397c-23.5,0-42.7-19.2-42.7-42.7s19.2-42.7,42.7-42.7S79,330.9,79,354.3S59.8,397,36.3,397z M36.3,333
		c-12.8,0-21.3,8.5-21.3,21.3s8.5,21.3,21.3,21.3s21.3-8.5,21.3-21.3S49.1,333,36.3,333z"/>
</g>
<g>
	<path class="st0" d="M-38.3,503.7c-6.4,0-10.7-4.3-10.7-10.7v-21.3c0-29.9,23.5-53.3,53.3-53.3h64c6.4,0,10.7,4.3,10.7,10.7
		c0,6.4-4.3,10.7-10.7,10.7h-64c-17.1,0-32,14.9-32,32V493C-27.7,499.4-31.9,503.7-38.3,503.7z"/>
</g>
<g>
	<path class="st0" d="M207,407.7c-36.3,0-64-27.7-64-64s27.7-64,64-64s64,27.7,64,64S243.3,407.7,207,407.7z M207,301
		c-23.5,0-42.7,19.2-42.7,42.7s19.2,42.7,42.7,42.7s42.7-19.2,42.7-42.7S230.5,301,207,301z"/>
</g>
<g>
	<path class="st0" d="M313.7,546.3c-6.4,0-10.7-4.3-10.7-10.7V493c0-17.1-14.9-32-32-32H143c-17.1,0-32,14.9-32,32v42.7
		c0,6.4-4.3,10.7-10.7,10.7c-6.4,0-10.7-4.3-10.7-10.7V493c0-29.9,23.5-53.3,53.3-53.3h128c29.9,0,53.3,23.5,53.3,53.3v42.7
		C324.3,542.1,320.1,546.3,313.7,546.3z"/>
</g>
</svg>
