<?xml version="1.0" encoding="utf-8"?>
<!-- Generator: Adobe Illustrator 19.0.0, SVG Export Plug-In . SVG Version: 6.00 Build 0)  -->
<svg version="1.1" id="Capa_1" xmlns="http://www.w3.org/2000/svg" xmlns:xlink="http://www.w3.org/1999/xlink" x="0px" y="0px"
	 viewBox="-49 141 512 512" style="enable-background:new -49 141 512 512;" xml:space="preserve">
<style type="text/css">
	.st0{fill:#FFFFFF;}
</style>
<g>
	<path class="st0" d="M372,185.1V141h-30v44.1h-30V141h-30v44.1h-30V141h-30v44.1h-30V141h-30v44.1h-30V141h-30v44.1H72V141H42v44.1
		h-60V653h450V185.1H372z M402,623H12V215.1h30V247h30v-31.9h30V247h30v-31.9h30V247h30v-31.9h30V247h30v-31.9h30V247h30v-31.9h30
		V247h30v-31.9h30V623z"/>
	<path class="st0" d="M102,295.7h183v30H102V295.7z"/>
	<path class="st0" d="M102,355.7h240v30H102V355.7z"/>
	<path class="st0" d="M102,415.7h200.4v30H102V415.7z"/>
	<path class="st0" d="M102,475.7h240v30H102V475.7z"/>
	<path class="st0" d="M102,535.7h200.4v30H102V535.7z"/>
	<path class="st0" d="M42,295.7h30v30H42V295.7z"/>
	<path class="st0" d="M42,355.7h30v30H42V355.7z"/>
	<path class="st0" d="M42,415.7h30v30H42V415.7z"/>
	<path class="st0" d="M42,475.7h30v30H42V475.7z"/>
	<path class="st0" d="M42,535.7h30v30H42V535.7z"/>
</g>
</svg>
