<?xml version="1.0" encoding="utf-8"?>
<!-- Generator: Adobe Illustrator 19.0.0, SVG Export Plug-In . SVG Version: 6.00 Build 0)  -->
<svg version="1.1" id="Capa_1" xmlns="http://www.w3.org/2000/svg" xmlns:xlink="http://www.w3.org/1999/xlink" x="0px" y="0px"
	 viewBox="-65 157 480 480" style="enable-background:new -65 157 480 480;" xml:space="preserve">
<style type="text/css">
	.st0{fill:#FFFFFF;}
</style>
<g>
	<g>
		<path class="st0" d="M375,221h-8v-40c0-13.2-10.8-24-24-24h-16c-13.2,0-24,10.8-24,24v40H47v-40c0-13.2-10.8-24-24-24H7
			c-13.2,0-24,10.8-24,24v40h-8c-22.1,0-40,17.9-40,40v336c0,22.1,17.9,40,40,40h400c22.1,0,40-17.9,40-40V261
			C415,238.9,397.1,221,375,221z M319,229v-48c0-4.4,3.6-8,8-8h16c4.4,0,8,3.6,8,8v48v32c0,4.4-3.6,8-8,8h-16c-4.4,0-8-3.6-8-8V229z
			 M-1,229v-48c0-4.4,3.6-8,8-8h16c4.4,0,8,3.6,8,8v48v32c0,4.4-3.6,8-8,8H7c-4.4,0-8-3.6-8-8V229z M399,597c0,13.2-10.8,24-24,24
			H-25c-13.2,0-24-10.8-24-24V365h448V597z M399,349H-49v-88c0-13.2,10.8-24,24-24h8v24c0,13.2,10.8,24,24,24h16
			c13.2,0,24-10.8,24-24v-24h256v24c0,13.2,10.8,24,24,24h16c13.2,0,24-10.8,24-24v-24h8c13.2,0,24,10.8,24,24V349z"/>
	</g>
</g>
<g>
	<g>
		<path class="st0" d="M263,261H87c-4.4,0-8,3.6-8,8v48c0,4.4,3.6,8,8,8h176c4.4,0,8-3.6,8-8v-48C271,264.6,267.4,261,263,261z
			 M255,309H95v-32h160V309z"/>
	</g>
</g>
<g>
	<g>
		<path class="st0" d="M39,389H-9c-4.4,0-8,3.6-8,8v40c0,4.4,3.6,8,8,8h48c4.4,0,8-3.6,8-8v-40C47,392.6,43.4,389,39,389z M31,429
			H-1v-24h32V429z"/>
	</g>
</g>
<g>
	<g>
		<path class="st0" d="M143,389H95c-4.4,0-8,3.6-8,8v40c0,4.4,3.6,8,8,8h48c4.4,0,8-3.6,8-8v-40C151,392.6,147.4,389,143,389z
			 M135,429h-32v-24h32V429z"/>
	</g>
</g>
<g>
	<g>
		<path class="st0" d="M255,389h-48c-4.4,0-8,3.6-8,8v40c0,4.4,3.6,8,8,8h48c4.4,0,8-3.6,8-8v-40C263,392.6,259.4,389,255,389z
			 M247,429h-32v-24h32V429z"/>
	</g>
</g>
<g>
	<g>
		<path class="st0" d="M359,389h-48c-4.4,0-8,3.6-8,8v40c0,4.4,3.6,8,8,8h48c4.4,0,8-3.6,8-8v-40C367,392.6,363.4,389,359,389z
			 M351,429h-32v-24h32V429z"/>
	</g>
</g>
<g>
	<g>
		<path class="st0" d="M39,469H-9c-4.4,0-8,3.6-8,8v40c0,4.4,3.6,8,8,8h48c4.4,0,8-3.6,8-8v-40C47,472.6,43.4,469,39,469z M31,509
			H-1v-24h32V509z"/>
	</g>
</g>
<g>
	<g>
		<path class="st0" d="M143,469H95c-4.4,0-8,3.6-8,8v40c0,4.4,3.6,8,8,8h48c4.4,0,8-3.6,8-8v-40C151,472.6,147.4,469,143,469z
			 M135,509h-32v-24h32V509z"/>
	</g>
</g>
<g>
	<g>
		<path class="st0" d="M255,469h-48c-4.4,0-8,3.6-8,8v40c0,4.4,3.6,8,8,8h48c4.4,0,8-3.6,8-8v-40C263,472.6,259.4,469,255,469z
			 M247,509h-32v-24h32V509z"/>
	</g>
</g>
<g>
	<g>
		<path class="st0" d="M359,469h-48c-4.4,0-8,3.6-8,8v40c0,4.4,3.6,8,8,8h48c4.4,0,8-3.6,8-8v-40C367,472.6,363.4,469,359,469z
			 M351,509h-32v-24h32V509z"/>
	</g>
</g>
<g>
	<g>
		<path class="st0" d="M39,549H-9c-4.4,0-8,3.6-8,8v40c0,4.4,3.6,8,8,8h48c4.4,0,8-3.6,8-8v-40C47,552.6,43.4,549,39,549z M31,589
			H-1v-24h32V589z"/>
	</g>
</g>
<g>
	<g>
		<path class="st0" d="M143,549H95c-4.4,0-8,3.6-8,8v40c0,4.4,3.6,8,8,8h48c4.4,0,8-3.6,8-8v-40C151,552.6,147.4,549,143,549z
			 M135,589h-32v-24h32V589z"/>
	</g>
</g>
<g>
	<g>
		<path class="st0" d="M256.9,543.9l-34.4,41.3l-17.8-17.8l-11.3,11.3l24,24c1.5,1.5,3.5,2.3,5.7,2.3c0.1,0,0.2,0,0.4,0
			c2.2-0.1,4.3-1.1,5.8-2.9l40-48L256.9,543.9z"/>
	</g>
</g>
<g>
	<g>
		<path class="st0" d="M352.9,543.9l-34.4,41.3l-17.8-17.8l-11.3,11.3l24,24c1.5,1.5,3.5,2.3,5.7,2.3c0.1,0,0.2,0,0.4,0
			c2.2-0.1,4.3-1.1,5.8-2.9l40-48L352.9,543.9z"/>
	</g>
</g>
</svg>
