<?xml version="1.0" encoding="utf-8"?>
<!-- Generator: Adobe Illustrator 19.0.0, SVG Export Plug-In . SVG Version: 6.00 Build 0)  -->
<svg version="1.1" id="Layer_1" xmlns="http://www.w3.org/2000/svg" xmlns:xlink="http://www.w3.org/1999/xlink" x="0px" y="0px"
	 viewBox="-50 141 511 511" style="enable-background:new -50 141 511 511;" xml:space="preserve">
<style type="text/css">
	.st0{fill:#FFFFFF;}
</style>
<path class="st0" d="M448.9,377.1c-7.6-7.1-18.1-11.4-28.5-12c-11.9-0.6-23.1,3.6-31.4,12l-56.8,56.2c-1.1-1.9-2.4-3.8-3.8-5.5
	c-7-8.3-17.2-12.9-28.8-12.9H220c-15,0-29.6-1.9-43.5-5.8c-36.1-10-70.6-2.7-99.8,21.1c-11.9,9.7-20.5,20.2-26,27.9l-14.3-13.8
	c-1.9-1.8-4.4-2.9-7-2.9c0,0,0,0-0.1,0c-2.7,0-5.3,1.1-7.2,3.1l-69.3,72c-1.9,1.9-2.9,4.5-2.8,7.2c0.1,2.7,1.2,5.2,3.1,7.1
	L70.4,642.5c1.9,1.9,4.4,2.8,6.9,2.8c2.6,0,5.2-1,7.2-3l68.7-70.5c1.9-1.9,2.9-4.6,2.9-7.2c-0.1-2.7-1.2-5.2-3.1-7.1l-6-5.8
	l13.7-1.5c8.3-1,16.7-1.5,25-1.5h121c19.7,0,36.4-4.3,49.6-12.8c0.1-0.1,0.2-0.1,0.3-0.2c4.8-3.3,9.1-7.2,12.8-11.6l81.6-95.9
	C465.1,411.7,464.2,391.2,448.9,377.1z M77,621.1l-102.7-97.8l55.3-57.5l102.1,99.1L77,621.1z M435.8,415.1L354.2,511
	c-2.6,3-5.6,5.8-8.8,8c-10,6.3-23,9.5-38.7,9.5h-121c-9.1,0-18.3,0.5-27.3,1.6l-30.1,3.4l-63-61.1c4.4-6.5,12.4-17,24.1-26.5
	c24.2-19.8,51.7-25.6,81.7-17.3c15.6,4.3,32,6.5,48.8,6.5h79.5c14.3,0,18.1,12.4,18.1,19.7c0,5.3-1.7,10.4-4.7,13.9
	c-3.2,3.8-7.9,5.8-13.7,5.8H230c-5.6,0-10.1,4.5-10.1,10.1c0,5.6,4.5,10.1,10.1,10.1h69.2c11.7,0,22-4.6,29-12.8
	c5.9-6.9,9.2-15.9,9.5-25.6l65.4-64.8c9.4-9.4,24-7,32.1,0.5C439.5,395.8,445.2,404,435.8,415.1z"/>
<path class="st0" d="M198.6,481.8c-1.3-5.4-6.7-8.8-12.1-7.5c-5.4,1.3-8.8,6.7-7.5,12.1l0.1,0.4c1.1,4.6,5.2,7.8,9.8,7.8
	c0.8,0,1.5-0.1,2.3-0.3c5.4-1.3,8.8-6.7,7.5-12.1L198.6,481.8z"/>
<path class="st0" d="M17.9,364.1h97.9c5.3,0,10.3-1.7,14.3-4.7c4,2.9,9,4.7,14.3,4.7h98c5.3,0,10.3-1.7,14.3-4.7
	c4,2.9,9,4.7,14.3,4.7h97.9c13.4,0,24.3-10.9,24.3-24.3v-45.7c0-20.5-11.5-38.3-28.7-47.1c8.3-10,13.3-22.9,13.3-37
	c0-32-26-58-58-58s-58,26-58,58c0,14,5,26.9,13.3,37c-7.4,3.8-13.8,9.3-18.6,16c-4.8-6.7-11.2-12.2-18.6-16
	c8.3-10,13.3-22.9,13.3-37c0-32-26-58-58-58s-58,26-58,58c0,14,5,26.9,13.3,37c-7.4,3.8-13.8,9.3-18.6,16
	c-4.8-6.7-11.2-12.2-18.6-16c8.3-10,13.3-22.9,13.3-37c0-32-26-58-58-58c-32,0-58,26-58,58c0,14,5,26.9,13.3,37
	c-17.2,8.8-28.7,26.6-28.7,47.1v45.7C-6.4,353.2,4.5,364.1,17.9,364.1z M320,172.1c20.9,0,37.9,17,37.9,37.9
	c0,20.9-17,37.9-37.9,37.9c-20.9,0-37.9-17-37.9-37.9C282.1,189.1,299.1,172.1,320,172.1z M293.8,261.7c7.9,4,16.7,6.2,26.1,6.2
	c9.4,0,18.3-2.3,26.1-6.2c15.6,2.7,27.1,16.2,27.1,32.3v45.7c0,2.3-1.9,4.2-4.2,4.2H271c-2.3,0-4.2-1.9-4.2-4.2v-45.7
	C266.8,277.9,278.2,264.4,293.8,261.7z M193.4,172.1c20.9,0,37.9,17,37.9,37.9c0,20.9-17,37.9-37.9,37.9c-20.9,0-37.9-17-37.9-37.9
	S172.6,172.1,193.4,172.1z M167.3,261.7c7.9,4,16.7,6.2,26.1,6.2s18.3-2.3,26.1-6.2c15.6,2.7,27.1,16.2,27.1,32.3v45.7
	c0,2.3-1.9,4.2-4.2,4.2h-97.9c-2.3,0-4.2-1.9-4.2-4.2v-45.7C140.2,277.9,151.7,264.4,167.3,261.7z M66.9,172.1
	c20.9,0,37.9,17,37.9,37.9c0,20.9-17,37.9-37.9,37.9S29,230.9,29,210C29,189.1,46,172.1,66.9,172.1z M13.7,294.1
	c0-16.2,11.5-29.6,27.1-32.3c7.9,4,16.7,6.2,26.1,6.2s18.3-2.3,26.1-6.2c15.6,2.7,27.1,16.2,27.1,32.3v45.7c0,2.3-1.9,4.2-4.2,4.2
	H17.9c-2.3,0-4.2-1.9-4.2-4.2V294.1z"/>
</svg>
