<?xml version="1.0" encoding="utf-8"?>
<!-- Generator: Adobe Illustrator 19.0.0, SVG Export Plug-In . SVG Version: 6.00 Build 0)  -->
<svg version="1.1" id="Layer_5" xmlns="http://www.w3.org/2000/svg" xmlns:xlink="http://www.w3.org/1999/xlink" x="0px" y="0px"
	 viewBox="-49 141 512 512" style="enable-background:new -49 141 512 512;" xml:space="preserve">
<style type="text/css">
	.st0{fill:#FFFFFF;}
</style>
<g>
	<path class="st0" d="M431,181H-17c-13.2,0-24,10.8-24,24v384c0,13.2,10.8,24,24,24h448c13.2,0,24-10.8,24-24V205
		C455,191.8,444.2,181,431,181z M-17,197h448c4.4,0,8,3.6,8,8v72H-25v-72C-25,200.6-21.4,197-17,197z M103,293h336v96H103V293z
		 M87,389H-25v-96H87V389z M-25,589V405H87v192H-17C-21.4,597-25,593.4-25,589z M431,597H103V405h336v184
		C439,593.4,435.4,597,431,597z"/>
	<path class="st0" d="M15,261c13.2,0,24-10.8,24-24s-10.8-24-24-24s-24,10.8-24,24S1.8,261,15,261z M15,229c4.4,0,8,3.6,8,8
		s-3.6,8-8,8s-8-3.6-8-8S10.6,229,15,229z"/>
	<path class="st0" d="M79,261c13.2,0,24-10.8,24-24s-10.8-24-24-24s-24,10.8-24,24S65.8,261,79,261z M79,229c4.4,0,8,3.6,8,8
		s-3.6,8-8,8s-8-3.6-8-8S74.6,229,79,229z"/>
	<path class="st0" d="M143,261c13.2,0,24-10.8,24-24s-10.8-24-24-24s-24,10.8-24,24S129.8,261,143,261z M143,229c4.4,0,8,3.6,8,8
		s-3.6,8-8,8s-8-3.6-8-8S138.6,229,143,229z"/>
	<path class="st0" d="M71,373v-64H-9v64H71z M7,325h48v32H7V325z"/>
	<path class="st0" d="M375,309c-17.6,0-32,14.4-32,32s14.4,32,32,32s32-14.4,32-32S392.6,309,375,309z M375,357c-8.8,0-16-7.2-16-16
		s7.2-16,16-16s16,7.2,16,16S383.8,357,375,357z"/>
	<path class="st0" d="M279,309c-17.6,0-32,14.4-32,32s14.4,32,32,32s32-14.4,32-32S296.6,309,279,309z M279,357c-8.8,0-16-7.2-16-16
		s7.2-16,16-16s16,7.2,16,16S287.8,357,279,357z"/>
	<path class="st0" d="M183,309c-17.6,0-32,14.4-32,32s14.4,32,32,32s32-14.4,32-32S200.6,309,183,309z M183,357c-8.8,0-16-7.2-16-16
		s7.2-16,16-16s16,7.2,16,16S191.8,357,183,357z"/>
	<path class="st0" d="M-9,437v48h80v-48H-9z M55,469H7v-16h48V469z"/>
	<path class="st0" d="M-9,565h80v-48H-9V565z M7,533h48v16H7V533z"/>
	<path class="st0" d="M247,565h-16V421h-48v144h-16V453h-48v128h176v-80h-48V565z M151,565h-16v-96h16V565z M199,437h16v128h-16V437
		z M263,517h16v48h-16V517z"/>
	<path class="st0" d="M311,485h112v-64H311V485z M327,437h80v32h-80V437z"/>
	<path class="st0" d="M311,501h16v16h-16V501z"/>
	<path class="st0" d="M343,501h80v16h-80V501z"/>
	<path class="st0" d="M311,533h16v16h-16V533z"/>
	<path class="st0" d="M343,533h80v16h-80V533z"/>
	<path class="st0" d="M311,565h16v16h-16V565z"/>
	<path class="st0" d="M343,565h80v16h-80V565z"/>
</g>
</svg>
