<?xml version="1.0" encoding="utf-8"?>
<!-- Generator: Adobe Illustrator 19.0.0, SVG Export Plug-In . SVG Version: 6.00 Build 0)  -->
<svg version="1.1" id="Layer_1" xmlns="http://www.w3.org/2000/svg" xmlns:xlink="http://www.w3.org/1999/xlink" x="0px" y="0px"
	 viewBox="-65 157 480 480" style="enable-background:new -65 157 480 480;" xml:space="preserve">
<style type="text/css">
	.st0{fill:#FFFFFF;}
</style>
<path class="st0" d="M391,157H239c-13.6,0-24,10.4-24,24v73.6c0,2.4-0.8,4-2.4,5.6L191,281.8V301h200c13.6,0,24-10.4,24-24v-96
	C415,167.4,404.6,157,391,157z M399,277c0,4.8-3.2,8-8,8H210.2l13.6-13.6c4.8-4.8,7.2-10.4,7.2-16.8V181c0-4.8,3.2-8,8-8h152
	c4.8,0,8,3.2,8,8V277z"/>
<path class="st0" d="M382.2,489L335,467.4c15.2-12.8,24-32,24-52V317h-96c-22.4,0-40,17.6-40,40v58.4c0,20,8.8,39.2,24,52l-40,18.4
	v-46.4c0-24-15.2-45.6-38.4-52.8L111,367.4V349h24.8c22.4,0,40-17.6,40-40c0-2.4,0-5.6-0.8-8l-10.4-50.4
	c-9.6-47.2-56-76.8-103.2-67.2c-33.6,7.2-60,33.6-67.2,67.2L-17,301c-4.8,21.6,9.6,43.2,31.2,47.2c2.4,0.8,5.6,0.8,8,0.8H47v18.4
	l-57.6,19.2c-23.2,8-38.4,28.8-38.4,52.8V541h-16v96h216v-16H-49v-64h216v80h248v-96.8C415,517.8,402.2,497.8,382.2,489z M239,415.4
	V357c0-13.6,10.4-24,24-24h80v82.4c0,28.8-23.2,52-52,52S239,444.2,239,415.4z M52.6,313.8l-9.6-6.4c-2.4-1.6-3.2-4-3.2-6.4v-44.8
	c10.4-5.6,23.2-4.8,33.6,0.8c13.6,8,31.2,9.6,45.6,3.2h0.8V301c0,2.4-1.6,4.8-3.2,6.4l-9.6,6.4c-6.4,4.8-10.4,12-10.4,20V365h-32
	v-31.2C63,325.8,59,317.8,52.6,313.8z M71,381v12l-23.2,17.6l-20-20l28.8-9.6H71z M87,381h14.4l28.8,9.6l-20,20L87,393V381z
	 M154.2,324.2c-4.8,5.6-11.2,8.8-18.4,8.8H111c0-2.4,1.6-4.8,3.2-6.4l9.6-6.4c6.4-4.8,10.4-12,10.4-20v-48l12-4.8
	c0.8,1.6,0.8,4,1.6,5.6l10.4,50.4C160.6,311.4,159,318.6,154.2,324.2z M79,197c25.6,0,48.8,13.6,61.6,36l-28.8,12
	c-10.4,4-21.6,3.2-31.2-2.4c-16-9.6-35.2-9.6-51.2-0.8L9.4,253v-0.8C16.6,220.2,45.4,197,79,197z M3.8,324.2
	c-4.8-5.6-6.4-12.8-4.8-20l6.4-29.6L23,264.2v36c0,8,4,15.2,10.4,20l9.6,6.4c2.4,1.6,3.2,4,3.2,6.4H21.4C15,333,8.6,329.8,3.8,324.2
	z M-33,439.4c0-17.6,11.2-32.8,27.2-37.6l16.8-5.6l35.2,35.2L71,413v128H23v-96H7v96h-40V439.4z M151,541v-64h-16v64H87V413
	l24.8,18.4l35.2-35.2l16.8,5.6c16,5.6,27.2,20.8,27.2,37.6v54.4c-15.2,10.4-24,27.2-24,45.6v1.6H151z M399,621H183v-80.8
	c0-16,8.8-29.6,23.2-36.8l56.8-25.6c17.6,8,37.6,8,54.4,0l56.8,25.6c14.4,6.4,23.2,20.8,23.2,36.8V621H399z"/>
<path class="st0" d="M39,581h80v16H39V581z"/>
<path class="st0" d="M247,189h136v16H247V189z"/>
<path class="st0" d="M247,221h136v16H247V221z"/>
<path class="st0" d="M247,253h104v16H247V253z"/>
<path class="st0" d="M103,445h48v16h-48V445z"/>
</svg>
