<?xml version="1.0" encoding="utf-8"?>
<!-- Generator: Adobe Illustrator 19.0.0, SVG Export Plug-In . SVG Version: 6.00 Build 0)  -->
<svg version="1.1" id="Layer_1" xmlns="http://www.w3.org/2000/svg" xmlns:xlink="http://www.w3.org/1999/xlink" x="0px" y="0px"
	 viewBox="-274 369 62 55" style="enable-background:new -274 369 62 55;" xml:space="preserve">
<style type="text/css">
	.st0{fill:#FFFFFF;}
</style>
<title>message question</title>
<g id="Page-1">
	<g id="Artboard" transform="translate(-489.000000, -394.000000)">
		<g id="message-question" transform="translate(489.000000, 394.000000)">
			<path id="Shape" class="st0" d="M-217.1,369.7h-51.8c-2.4,0-4.6,2.1-4.6,4.6v34.1c0,2.4,2.1,4.6,4.6,4.6h0.3
				c0.9,0,1.5,0.6,1.5,1.5v4.9c0,1.2,0.6,2.4,1.5,3.4c0.9,0.9,2.1,1.2,3,1.2c1.2,0,2.4-0.6,3-1.2l9.1-9.1c0.3-0.3,0.6-0.6,0.9-0.6
				h32.3c2.4,0,4.6-2.1,4.6-4.6v-34.1C-212.5,371.9-214.7,369.7-217.1,369.7z M-215.6,408.4c0,0.9-0.6,1.5-1.5,1.5h-32
				c-1.2,0-2.4,0.6-3.4,1.2l-9.1,9.1c-0.9,0.9-1.5,0.6-2.1,0c-0.3-0.3-0.3-0.6-0.3-1.2v-4.9c0-2.4-2.1-4.6-4.6-4.6h-0.3
				c-0.9,0-1.5-0.6-1.5-1.5v-33.8c0-0.9,0.6-1.5,1.5-1.5h51.8c0.9,0,1.5,0.6,1.5,1.5C-215.6,374.3-215.6,408.4-215.6,408.4z"/>
			<path id="Shape_1_" class="st0" d="M-236.6,388c0,3-2.1,5.5-4.9,6.4v1.2c0,0.9-0.6,1.5-1.5,1.5s-1.5-0.6-1.5-1.5v-2.7
				c0-0.9,0.6-1.5,1.5-1.5c1.8,0,3.4-1.5,3.4-3.4c0-1.8-1.5-3.4-3.4-3.4c-1.8,0-3.4,1.5-3.4,3.4c0,0.9-0.6,1.5-1.5,1.5
				c-0.9,0-1.5-0.6-1.5-1.5c0-3.7,3-6.4,6.4-6.4C-239.3,381.6-236.6,384.7-236.6,388z"/>
			<path id="Shape_2_" class="st0" d="M-243,403.3c-0.9,0-1.5-0.6-1.5-1.5v-0.6c0-0.9,0.6-1.5,1.5-1.5s1.5,0.6,1.5,1.5v0.6
				C-241.5,402.7-242.1,403.3-243,403.3z"/>
		</g>
	</g>
</g>
</svg>
