<?xml version="1.0" encoding="utf-8"?>
<!-- Generator: Adobe Illustrator 19.0.0, SVG Export Plug-In . SVG Version: 6.00 Build 0)  -->
<svg version="1.1" id="Capa_1" xmlns="http://www.w3.org/2000/svg" xmlns:xlink="http://www.w3.org/1999/xlink" x="0px" y="0px"
	 viewBox="-49 141 512 512" style="enable-background:new -49 141 512 512;" xml:space="preserve">
<style type="text/css">
	.st0{fill:#FFFFFF;}
</style>
<g>
	<g>
		<path class="st0" d="M366.8,443c-9.1-32.3-28-61.4-54-82.9c-15.3-12.7-32.7-22.4-51.3-28.8c16.9-15,27.5-36.9,27.5-61.2v-47
			c0-45.2-36.8-82-82-82s-82,36.8-82,82v47c0,24.3,10.7,46.2,27.5,61.2c-18.6,6.5-36,16.2-51.3,28.8c-26.1,21.6-44.9,50.7-54,82.9
			h-37l23.3,210h346.9l23.3-210H366.8z M155,223c0-28.7,23.3-52,52-52s52,23.3,52,52v47c0,28.7-23.3,52-52,52s-52-23.3-52-52V223z
			 M207,352c58.2,0,109.6,37.3,128.4,91H78.6C97.4,389.3,148.8,352,207,352z M353.6,623H60.4L43.8,473h326.5L353.6,623z"/>
	</g>
</g>
<g>
	<g>
		<circle class="st0" cx="207" cy="542" r="20"/>
	</g>
</g>
</svg>
