<?xml version="1.0" encoding="utf-8"?>
<!-- Generator: Adobe Illustrator 19.0.0, SVG Export Plug-In . SVG Version: 6.00 Build 0)  -->
<svg version="1.1" id="Layer_3" xmlns="http://www.w3.org/2000/svg" xmlns:xlink="http://www.w3.org/1999/xlink" x="0px" y="0px"
	 viewBox="-49 141 512 512" style="enable-background:new -49 141 512 512;" xml:space="preserve">
<style type="text/css">
	.st0{fill:#FFFFFF;}
</style>
<g>
	<path class="st0" d="M431,197h-16v-8c0-13.2-10.8-24-24-24h-88c0-8.8-7.2-16-16-16H127c-8.8,0-16,7.2-16,16H23
		c-13.2,0-24,10.8-24,24v8h-16c-13.2,0-24,10.8-24,24v48v40c0,14.9,10.2,27.3,24,30.9V581c-13.2,0-24,10.8-24,24v32c0,4.4,3.6,8,8,8
		h480c4.4,0,8-3.6,8-8v-32c0-13.2-10.8-24-24-24V339.9c13.8-3.6,24-16,24-30.9v-40v-48C455,207.8,444.2,197,431,197z M391,181
		c4.4,0,8,3.6,8,8v8h-96v-16H391z M127,165h160l0,64H127V165z M15,189c0-4.4,3.6-8,8-8h88v16H15V189z M-17,213h128v16
		c0,8.8,7.2,16,16,16h160c8.8,0,16-7.2,16-16v-16h128c4.4,0,8,3.6,8,8v40h-40h-48h-48h-48h-48h-48h-48H63H15h-40v-40
		C-25,216.6-21.4,213-17,213z M359,277h32v32c0,8.8-7.2,16-16,16s-16-7.2-16-16V277z M311,277h32v32c0,8.8-7.2,16-16,16
		s-16-7.2-16-16V277z M263,277h32v32c0,8.8-7.2,16-16,16s-16-7.2-16-16V277z M215,277h32v32c0,8.8-7.2,16-16,16s-16-7.2-16-16V277z
		 M167,277h32v32c0,8.8-7.2,16-16,16s-16-7.2-16-16V277z M119,277h32v32c0,8.8-7.2,16-16,16s-16-7.2-16-16V277z M71,277h32v32
		c0,8.8-7.2,16-16,16s-16-7.2-16-16V277z M23,277h32v32c0,8.8-7.2,16-16,16s-16-7.2-16-16V277z M-25,309v-32H7v32
		c0,8.8-7.2,16-16,16S-25,317.8-25,309z M-1,405h224v112H-1V405z M223,389H-1v-16h224V389z M-1,533h224v48H-1V533z M439,605v24H-25
		v-24c0-4.4,3.6-8,8-8h448C435.4,597,439,600.6,439,605z M383,389H271v-16h112V389z M271,405h112v176H271V405z M399,581V365
		c0-4.4-3.6-8-8-8H263c-4.4,0-8,3.6-8,8v216h-16V365c0-4.4-3.6-8-8-8H-1v-17.1c6.3-1.6,11.8-5.1,16-9.9c5.9,6.7,14.4,11.1,24,11.1
		s18.1-4.3,24-11.1c5.9,6.7,14.4,11.1,24,11.1s18.1-4.3,24-11.1c5.9,6.7,14.4,11.1,24,11.1s18.1-4.3,24-11.1
		c5.9,6.7,14.4,11.1,24,11.1s18.1-4.3,24-11.1c5.9,6.7,14.4,11.1,24,11.1s18.1-4.3,24-11.1c5.9,6.7,14.4,11.1,24,11.1
		s18.1-4.3,24-11.1c5.9,6.7,14.4,11.1,24,11.1s18.1-4.3,24-11.1c5.9,6.7,14.4,11.1,24,11.1s18.1-4.3,24-11.1c4.2,4.8,9.7,8.3,16,9.9
		V581H399z M439,309c0,8.8-7.2,16-16,16s-16-7.2-16-16v-32h32V309z"/>
	<path class="st0" d="M25.3,487.3l56-56l11.3,11.3l-56,56L25.3,487.3z"/>
	<path class="st0" d="M97.3,487.3l56-56l11.3,11.3l-56,56L97.3,487.3z"/>
	<path class="st0" d="M247,173h-80c-13.2,0-24,10.8-24,24s10.8,24,24,24h80c13.2,0,24-10.8,24-24S260.2,173,247,173z M247,205h-80
		c-4.4,0-8-3.6-8-8s3.6-8,8-8h80c4.4,0,8,3.6,8,8S251.4,205,247,205z"/>
	<circle class="st0" cx="295" cy="477" r="16"/>
</g>
</svg>
