<?xml version="1.0" encoding="utf-8"?>
<!-- Generator: Adobe Illustrator 19.0.0, SVG Export Plug-In . SVG Version: 6.00 Build 0)  -->
<svg version="1.1" id="Outline" xmlns="http://www.w3.org/2000/svg" xmlns:xlink="http://www.w3.org/1999/xlink" x="0px" y="0px"
	 viewBox="-49 141 512 512" style="enable-background:new -49 141 512 512;" xml:space="preserve">
<style type="text/css">
	.st0{fill:#FFFFFF;}
</style>
<path class="st0" d="M439,613H325l18.5-2.9c25.5-4,43-28,38.9-53.6c-3.6-22.8-23.2-39.5-46.3-39.5c-0.3,0-0.5,0-0.8,0l-60,5.9
	C271,512.1,263,490.2,263,473c0-18.5,9.3-42.7,13.4-52.4c15.7-2,28.8-12.9,33.8-27.9l29.2-87.7c3-8.9,0-18.7-7.5-24.4l-86.2-72.5
	L230.4,170c-1.2-3-4.2-5-7.4-5h-32c-3.3,0-6.2,2-7.4,5l-15.3,38.1l-86.2,72.5c-7.4,5.7-10.4,15.5-7.5,24.4l29.2,87.7
	c5,15,18.1,25.8,33.8,27.9c4.1,9.6,13.4,33.8,13.4,52.4c0,17.2-8,39.1-12.4,50l-60-5.9c-0.3,0-0.5,0-0.8,0C52,517,31,538,31,563.8
	c0,23,16.8,42.7,39.5,46.3L89,613H-25c-4.4,0-8,3.6-8,8s3.6,8,8,8h464c4.4,0,8-3.6,8-8S443.4,613,439,613L439,613z M151,411.3V373
	h16.8c4.4,21.6,25.6,35.6,47.2,31.2c15.7-3.2,28-15.5,31.2-31.2H263v38.3c-3.7,8.4-6.9,17-9.6,25.7h-92.8
	C157.9,428.2,154.7,419.7,151,411.3L151,411.3z M267.9,357H247c5.2-6.9,8-15.3,8-24v-24c0-14.4-6.6-27-16.6-34.1
	c0.6-3.2,0.7-6.4,0.3-9.6l46.9,38.4L267.9,357z M191,269c0-8.8,7.2-16,16-16c8.8,0,16,7.2,16,16v0.1c-0.9-0.1-1.8-0.1-2.7-0.1h-26.7
	c-0.9,0-1.8,0.1-2.7,0.1C191,269.1,191,269,191,269z M193.7,285h26.7c10.3,0,18.7,10.8,18.7,24v4.2l-29-11.6c-1.9-0.8-4-0.8-5.9,0
	l-29,11.6V309C175,295.8,183.4,285,193.7,285L193.7,285z M207,317.6l32,12.8v2.6c0,13.2-10.8,24-24,24h-16c-13.2,0-24-10.8-24-24
	v-2.6L207,317.6z M199,373h16c5.3,0,10.6-1.1,15.5-3.1c-2.7,13-15.4,21.3-28.4,18.6c-9.4-1.9-16.7-9.3-18.6-18.6
	C188.4,371.9,193.7,373,199,373z M175.6,274.9c-9.9,7-16.6,19.7-16.6,34.1v24c0,8.7,2.8,17.1,8,24h-20.9l-17.8-53.3l46.9-38.4
	C174.8,268.5,175,271.8,175.6,274.9z M231.6,216c0.5,1.2,1.3,2.3,2.3,3.2l87.9,73.9c0.1,0.1,0.2,0.2,0.3,0.3
	c2.1,1.5,2.9,4.2,2.1,6.7L295,387.7c-2.5,7.6-8.4,13.5-16,16v-29.4l21.8-65.5c2.1-6.3,0.1-13.2-5-17.4L215,225.2V181h2.6L231.6,216z
	 M135,403.7c-7.6-2.5-13.5-8.4-16-16L89.8,300c-0.8-2.5,0-5.2,2.1-6.7c0.1-0.1,0.2-0.2,0.3-0.3l87.9-73.9c1-0.8,1.8-1.9,2.3-3.2
	l14-35h2.6v44.2l-80.8,66.1c-5.1,4.2-7.1,11.1-5,17.4l21.8,65.5L135,403.7z M167,473c-0.1-6.7-0.9-13.4-2.3-20h84.6
	c-1.4,6.6-2.2,13.3-2.3,20c0,17.8,6.9,38.8,11.8,51.6l-4.2,0.4h-95.2l-4.2-0.4C160.1,511.8,167,490.8,167,473L167,473z M47,563.8
	c0-16.9,13.6-30.6,30.5-30.8l80.8,8h0.8h96h0.8l80.8-8c17,0.2,30.7,14.2,30.5,31.2c-0.2,15-11.2,27.7-26,30.1l-56.3,8.9l-7.1-10.6
	c-1.1-1.6-2.6-2.7-4.5-3.3l-19-5.4l44-19.6c4-1.8,5.9-6.5,4.1-10.6s-6.5-5.9-10.6-4.1L230.2,577l-13-3.7c-1.5-0.4-3.2-0.4-4.7,0.1
	l-21.1,7l-69.2-30.7c-4-1.8-8.8,0-10.6,4.1s0,8.8,4.1,10.6l67.2,29.9v17.4l-110-17.4C58,592,46.9,579,47,563.8z M199,613v-18.2
	l16.2-5.4l50.8,14.5l6.1,9.1H199z"/>
</svg>
