<?xml version="1.0" encoding="utf-8"?>
<!-- Generator: Adobe Illustrator 19.0.0, SVG Export Plug-In . SVG Version: 6.00 Build 0)  -->
<svg version="1.1" id="Capa_1" xmlns="http://www.w3.org/2000/svg" xmlns:xlink="http://www.w3.org/1999/xlink" x="0px" y="0px"
	 viewBox="-49 141 512 512" style="enable-background:new -49 141 512 512;" xml:space="preserve">
<style type="text/css">
	.st0{fill:#FFFFFF;}
</style>
<g>
	<path class="st0" d="M242.3,583.3H-10.3v-15.7c0-28.8,8.5-56.6,24.7-80.3c2.3-3.4,1.5-8.1-2-10.4c-3.4-2.3-8.1-1.5-10.4,2
		c-17.9,26.2-27.3,56.9-27.3,88.8v18.2c0,6.9,5.6,12.5,12.5,12.5h255.1c4.1,0,7.5-3.4,7.5-7.5C249.8,586.6,246.4,583.3,242.3,583.3
		L242.3,583.3z"/>
	<path class="st0" d="M139.8,280.6c-6.4,0-11.5,5.1-11.5,11.5s5.1,11.5,11.5,11.5s11.5-5.1,11.5-11.5
		C151.3,285.7,146.1,280.6,139.8,280.6z"/>
	<path class="st0" d="M229.5,303.6c6.4,0,11.5-5.1,11.5-11.5c0-6.4-5.1-11.5-11.5-11.5s-11.5,5.1-11.5,11.5
		C218,298.4,223.1,303.6,229.5,303.6z"/>
	<path class="st0" d="M205.4,342c-4.7,6.8-12.4,10.8-20.6,10.8s-15.9-4-20.6-10.8c-2.4-3.4-7-4.3-10.4-1.9c-3.4,2.4-4.3,7-1.9,10.4
		c7.5,10.8,19.8,17.3,32.9,17.3s25.5-6.5,32.9-17.3c2.4-3.4,1.5-8.1-1.9-10.4C212.4,337.7,207.7,338.6,205.4,342L205.4,342z"/>
	<path class="st0" d="M422.7,518.3l14.5-16.8c2.7-3.1,2.4-7.9-0.8-10.6c-3.1-2.7-7.9-2.4-10.6,0.8L412.6,507
		c-11.1-10.5-25.1-17.9-40.5-21.2c-24.6-40.4-66.4-68-113-74.4v-26.9c10-11,17.7-23.8,22.5-37.8c16.1-0.8,34.4-19.3,43.4-38.5
		c10.4-22,5.7-40.3-12.4-48.8c-8.7-4.1-17.4-4.3-25.1-0.9v-49.4c0-37.6-30.6-68.2-68.2-68.2h-68.9c-37.6,0-68.2,30.6-68.2,68.2v49.4
		c-7.8-3.4-16.5-3.2-25.1,0.9c-18.1,8.5-22.8,26.8-12.4,48.8c9,19.2,27.3,37.7,43.4,38.5c4.8,14,12.5,26.9,22.5,37.8v26.9
		c-31.7,4.4-60.9,18.1-84.7,39.9c-3.1,2.8-3.3,7.6-0.5,10.6c2.8,3.1,7.6,3.3,10.6,0.5c21-19.3,46.7-31.6,74.7-35.9
		c1.9,33,29.4,59.3,62.9,59.3H196c33.5,0,61-26.3,62.9-59.3c37.7,5.8,71.7,26.7,94,57.5c-45.7,1-82.6,38.5-82.6,84.4
		c0,46.6,37.9,84.5,84.5,84.5s84.5-37.9,84.5-84.5C439.3,549.7,433.1,532.4,422.7,518.3L422.7,518.3z M306.2,273
		c3.8,1.8,15.4,7.2,5.2,28.8c-6.5,13.8-17.5,24.9-25.6,28.6c1.1-6.2,1.7-12.5,1.7-18.9v-34.7C293,270.8,298.9,269.6,306.2,273
		L306.2,273z M150.3,156h68.9c29.3,0,53.1,23.8,53.1,53.1v18c-3-1.3-6.3-2-9.8-2H244c-4.1,0-7.5,3.4-7.5,7.5s3.4,7.5,7.5,7.5h18.6
		c5.4,0,9.8,4.4,9.8,9.8v61.5c0,31-15.4,59.9-41.1,77.2l-27.6,18.6c-11.4,7.7-26.2,7.7-37.7,0l-27.6-18.6
		c-25.7-17.3-41.1-46.2-41.1-77.2V250c0-5.4,4.4-9.8,9.8-9.8h101.2c4.1,0,7.5-3.4,7.5-7.5s-3.4-7.5-7.5-7.5H107
		c-3.5,0-6.8,0.7-9.8,2v-18C97.2,179.9,121,156,150.3,156L150.3,156z M58.2,301.8c-10.2-21.6,1.4-27,5.2-28.8
		c7.3-3.4,13.2-2.2,18.7,3.8v34.7c0,6.4,0.6,12.7,1.7,18.9C75.8,326.8,64.8,315.7,58.2,301.8L58.2,301.8z M196,470.9h-22.4
		c-26.5,0-48-21.5-48-48V398c2.1,1.8,29,19.6,32,21.7c8.3,5.6,17.7,8.3,27.2,8.3s19-2.8,27.2-8.3c3.1-2.1,29.8-19.8,32-21.7v24.8
		C244,449.3,222.5,470.9,196,470.9L196,470.9z M354.8,638c-38.3,0-69.5-31.2-69.5-69.5s31.2-69.5,69.5-69.5c18.6,0,35.5,7.4,48,19.3
		l-50.6,58.8l-28.5-26.8c-3-2.8-7.8-2.7-10.6,0.3c-2.8,3-2.7,7.8,0.3,10.6l34.2,32.2c3,2.9,8.2,2.6,10.8-0.6l54.1-62.9
		c7.4,11,11.7,24.3,11.7,38.5C424.3,606.8,393.1,638,354.8,638L354.8,638z"/>
</g>
</svg>
