<?xml version="1.0" encoding="utf-8"?>
<!-- Generator: Adobe Illustrator 19.0.0, SVG Export Plug-In . SVG Version: 6.00 Build 0)  -->
<svg version="1.1" id="_x33_0" xmlns="http://www.w3.org/2000/svg" xmlns:xlink="http://www.w3.org/1999/xlink" x="0px" y="0px"
	 viewBox="-49 141 512 512" style="enable-background:new -49 141 512 512;" xml:space="preserve">
<style type="text/css">
	.st0{fill:#FFFFFF;}
</style>
<g>
	<circle class="st0" cx="183" cy="477" r="8"/>
	<circle class="st0" cx="231" cy="477" r="8"/>
	<path class="st0" d="M191,421h16v32h-16V421z"/>
	<path class="st0" d="M191,517v16h16c17.6,0,32-14.4,32-32h-16c0,8.8-7.2,16-16,16H191z"/>
	<path class="st0" d="M439,405h-16c-4.1,0-7.8,1.6-10.6,4.1c-3.8-2.6-8.4-4.1-13.4-4.1h-32c-5,0-9.6,1.5-13.4,4.1
		c-2.8-2.5-6.5-4.1-10.6-4.1h-0.7c-3.1-19-17.2-34.7-36.4-39.5L248,351c1.2-0.6,2.5-1.3,3.6-2h32.2c23.8,0,43.2-19.4,43.2-43.2
		c0-4.7-1.4-9.3-4-13.3l-11.1-16.7l12.8-38.4c1.6-4.8,2.4-9.7,2.4-14.7c0-13.6-5.9-26.5-16.3-35.4L279,160.2
		c-8.4-7.2-19.2-11.2-30.3-11.2h-83.5c-11.1,0-21.9,4-30.3,11.2l-31.7,27.2C92.9,196.2,87,209.1,87,222.7c0,5,0.8,9.9,2.4,14.7
		l12.8,38.3L91,292.5c-2.6,4-4,8.6-4,13.3c0,23.8,19.4,43.2,43.2,43.2h32.2c1.2,0.7,2.4,1.4,3.6,2l-57.8,14.5
		C88.9,370.3,74.8,386,71.7,405H71c-4.1,0-7.8,1.6-10.6,4.1C56.6,406.5,52,405,47,405H15c-5,0-9.6,1.5-13.4,4.1
		C-1.2,406.6-4.9,405-9,405h-16c-8.8,0-16,7.2-16,16v80c0,8.8,7.2,16,16,16h16c8.8,0,16-7.2,16-16v-16h0.2
		C9.9,556.6,56,620.1,124.3,644.5l1.3,0.5H287l1.9-0.2l1.3-0.5C358,620.1,404.1,556.6,406.8,485h0.2v16c0,8.8,7.2,16,16,16h16
		c8.8,0,16-7.2,16-16v-80C455,412.2,447.8,405,439,405L439,405z M359,469v-17.5c2.5,0.9,5.2,1.5,8,1.5h32c2.8,0,5.5-0.6,8-1.5V469
		H359z M327,421h16v80h-16V421z M367,421h32c4.4,0,8,3.6,8,8s-3.6,8-8,8h-32c-4.4,0-8-3.6-8-8S362.6,421,367,421z M325.9,405.1
		c-8.3,0.6-14.9,7.4-14.9,15.9v80c0,8.8,7.2,16,16,16h5.3c-11.7,33.4-42.9,56-79.1,56h-8.5l-3.7-11.2c13.3-5.7,23.1-18.3,24.4-33.4
		l1-11.7c16-1.7,28.6-15.2,28.6-31.7c0-7.2-2.5-13.8-6.5-19.1l3.3-9.8c2.2-6.4,3.2-13.2,3.2-19.9c0-16.1-6.1-30.7-16-41.8v-19
		l23,5.8C314.1,384,323.1,393.5,325.9,405.1z M279,629H135v-43.3c8.2,2.2,16.9,3.3,25.8,3.3h6.2c0,13.2,10.8,24,24,24h32
		c13.2,0,24-10.8,24-24h6.2c8.9,0,17.5-1.1,25.8-3.3V629z M159,421v7.4c0,8.5-3.3,16.6-9.4,22.6l-2.3,2.3c-2.9,0.3-5.8,1-8.4,2
		l-1.5-4.5c-1.6-4.8-2.4-9.8-2.4-14.9c0-26,21.1-47.1,47.1-47.1h49.9c26,0,47.1,21.1,47.1,47.1c0,5.1-0.8,10.1-2.4,14.9l-1.5,4.5
		c-3-1.2-6.3-1.9-9.7-2.2l-13.1-6.6c-8.2-4.1-13.3-12.3-13.3-21.5V421h-16v4.2c0,15.2,8.5,28.9,22.1,35.8l9.5,4.7l-5.1,61.3
		c-1,12.3-11.5,22-23.9,22h-37.1c-12.4,0-22.9-9.7-23.9-22l-5.2-63l1.7-1.7c9.1-9.1,14.1-21.1,14.1-33.9V421L159,421z M143.8,470.8
		l2.4,29.4c-6.5-2-11.2-8-11.2-15.2C135,478.8,138.6,473.4,143.8,470.8L143.8,470.8z M270.2,470.8c5.2,2.6,8.8,8,8.8,14.2
		c0,7.2-4.8,13.2-11.2,15.2L270.2,470.8z M263,381.2c-5-2.8-10.3-5-16-6.4v-7.6l16,4V381.2z M231,373h-48v-16.6
		c2.6,0.4,5.3,0.6,8,0.6h32c2.7,0,5.4-0.3,8-0.6V373z M167,374.9c-5.7,1.4-11,3.5-16,6.4v-10l16-4V374.9z M183,582.3l5.8-17.3h36.5
		l5.8,17.3v6.7c0,4.4-3.6,8-8,8h-32c-4.4,0-8-3.6-8-8V582.3z M279,261c8.8,0,16,7.2,16,16s-7.2,16-16,16V261z M283.8,333h-15
		c4.9-7,8.2-15.2,9.5-24h0.6c11,0,20.6-5.6,26.4-14l4.2,6.4c0.9,1.3,1.3,2.9,1.3,4.4C311,320.8,298.8,333,283.8,333L283.8,333z
		 M113.7,199.5l31.7-27.2c5.5-4.7,12.6-7.4,19.9-7.4h83.5c7.3,0,14.4,2.6,19.9,7.4l31.7,27.2c6.8,5.8,10.7,14.3,10.7,23.2
		c0,3.3-0.5,6.5-1.6,9.7l-7.5,22.4c-5.8-6-13.9-9.8-23-9.8v-40h-16v9.7c-10-8.2-16-20.4-16-33.7h-16c0,22.4,12.3,42.5,32,52.8V301
		c0,22.1-17.9,40-40,40h-32c-22.1,0-40-17.9-40-40v-64c0-13,10.3-23.5,23.2-23.9c4.7,9,11.7,16.8,20.4,22.6l8.9-13.3
		c-12.8-8.5-20.4-22.8-20.4-38.2V181h-16v3.2c0,4.6,0.6,9.1,1.6,13.5c-19,3.1-33.6,19.5-33.6,39.3v8c-9,0-17.1,3.8-23,9.8l-7.5-22.4
		c-1-3.1-1.6-6.4-1.6-9.7C103,213.8,106.9,205.3,113.7,199.5L113.7,199.5z M135,293c-8.8,0-16-7.2-16-16s7.2-16,16-16V293z
		 M103,305.8c0-1.6,0.5-3.1,1.3-4.4l4.2-6.4c5.8,8.4,15.4,14,26.4,14h0.6c1.3,8.8,4.6,17,9.5,24h-15C115.2,333,103,320.8,103,305.8
		L103,305.8z M112,381l23-5.8v19c-9.9,11.1-16,25.8-16,41.8c0,6.8,1.1,13.5,3.2,19.9l3.3,9.9c-4,5.4-6.5,11.9-6.5,19.1
		c0,16.5,12.6,29.9,28.6,31.7l1,11.7c1.3,15.1,11.1,27.8,24.4,33.4l-3.8,11.2h-8.5c-36.2,0-67.4-22.6-79.1-56H87c8.8,0,16-7.2,16-16
		v-80c0-8.5-6.6-15.3-14.9-15.9C90.9,393.5,99.9,384,112,381z M55,469H7v-17.5c2.5,0.9,5.2,1.5,8,1.5h32c2.8,0,5.5-0.6,8-1.5V469z
		 M71,421h16l0,80H71L71,421z M15,421h32c4.4,0,8,3.6,8,8s-3.6,8-8,8H15c-4.4,0-8-3.6-8-8S10.6,421,15,421z M-25,501v-80h16v8v0
		c0,0,0,0,0,0l0,72H-25z M23.2,485H55v16c0,6.5,3.9,12.1,9.5,14.6c8,29.3,28.2,52.4,54.5,64.4v45.2C63.1,600.7,25.7,546.2,23.2,485
		L23.2,485z M295,625.1V580c26.3-12,46.5-35.1,54.5-64.4c5.6-2.5,9.5-8.1,9.5-14.6v-16h31.8C388.3,546,351,600.5,295,625.1z
		 M439,501h-16v-80h16V501z"/>
	<path class="st0" d="M167,285c0,22.1,17.9,40,40,40s40-17.9,40-40v-8h-80V285z M229.6,293c-3.3,9.3-12.2,16-22.6,16
		s-19.3-6.7-22.6-16H229.6z"/>
	<path class="st0" d="M226.6,235.7l8.9-13.3c-12.8-8.5-20.4-22.8-20.4-38.2V181h-16v3.2C199,204.9,209.3,224.2,226.6,235.7z"/>
	<path class="st0" d="M167,245h16v16h-16V245z"/>
	<path class="st0" d="M231,245h16v16h-16V245z"/>
</g>
</svg>
