<?xml version="1.0" encoding="utf-8"?>
<!-- Generator: Adobe Illustrator 19.0.0, SVG Export Plug-In . SVG Version: 6.00 Build 0)  -->
<svg version="1.1" id="Capa_1" xmlns="http://www.w3.org/2000/svg" xmlns:xlink="http://www.w3.org/1999/xlink" x="0px" y="0px"
	 viewBox="-49 141 512 512" style="enable-background:new -49 141 512 512;" xml:space="preserve">
<style type="text/css">
	.st0{fill:#FFFFFF;}
</style>
<g>
	<g>
		<path class="st0" d="M207,141c-74.4,0-135,60.6-135,135s60.6,135,135,135s135-60.6,135-135S281.4,141,207,141z M207,381
			c-57.9,0-105-47.1-105-105s47.1-105,105-105s105,47.1,105,105S264.9,381,207,381z"/>
	</g>
</g>
<g>
	<g>
		<path class="st0" d="M248.8,442h-83.7C96,442,27.7,474-18,542.5V653h450V542.5C386.4,474,318.1,442,248.8,442z M402,623L402,623
			H12v-71.4c35-50,92-79.6,153.2-79.6h83.7C310,472,367,501.7,402,551.6L402,623L402,623z"/>
	</g>
</g>
</svg>
